<?xml version="1.0" encoding="UTF-8"?>
<!-- Created with Inkscape (http://www.inkscape.org/) -->
<svg width="2650"  height="322" version="1.1" viewBox="0 0 2650 322" xmlns="http://www.w3.org/2000/svg" xmlns:cc="http://creativecommons.org/ns#" xmlns:dc="http://purl.org/dc/elements/1.1/" xmlns:rdf="http://www.w3.org/1999/02/22-rdf-syntax-ns#" fill="#fff">
 <metadata>
  <rdf:RDF>
   <cc:Work rdf:about="">
    <dc:format>image/svg+xml</dc:format>
    <dc:type rdf:resource="http://purl.org/dc/dcmitype/StillImage"/>
    <dc:title/>
   </cc:Work>
  </rdf:RDF>
 </metadata>
 <path d="m364.83 289.98c-10.294-1.8603-17.687-5.4691-22.572-11.019-4.0853-4.6411-7.1112-11.667-7.1112-16.51 0-6.1852-5.4279-5.8786 104.07-5.8786 95.243 0 99.695-0.0804 101.28-1.8287 1.3863-1.5319 1.655-4.2824 1.655-16.943 0-14.485-0.0925-15.179-2.2225-16.671-1.9649-1.3763-11.164-1.5567-79.369-1.5567-83.969 0-89.202-0.29191-100.12-5.585-6.8585-3.3241-12.855-10.226-15.055-17.328-2.5938-8.374-2.5334-48.988 0.0855-57.468 2.5771-8.3457 9.8438-15.513 18.714-18.457 12.172-4.0401 18.766-4.286 104.97-3.9132 75.772 0.3276 82.989 0.50278 88.5 2.1482 13.123 3.9185 22.055 10.409 26.154 19.004 1.479 3.1014 1.4883 3.7788 0.0999 7.2599l-1.5313 3.8394-93.765 0.25515c-67.261 0.18303-94.146 0.57098-95.111 1.3724-1.0129 0.8406-1.3463 4.6394-1.3463 15.34 0 12.509 0.22038 14.422 1.8287 15.878 1.6665 1.5082 8.3093 1.655 74.894 1.655 75.414 0 88.275 0.5201 99.636 4.0292 7.8164 2.4142 12.104 5.2445 16.322 10.774 5.4174 7.1027 5.8194 9.8809 5.8194 40.22v27.523l-3.3426 6.7876c-3.7368 7.588-8.0267 11.351-16.596 14.557-10.256 3.8374-17.728 4.1119-109.38 4.0192-71.729-0.0726-90.172-0.35973-96.495-1.5024zm294.32-83.289v-84.881l3.4333-2.6187 3.4333-2.6187 101.82 0.0349c109.56 0.0375 111.44 0.11744 122.53 5.2158 7.2224 3.3201 11.388 7.0701 14.585 13.13l2.7008 5.1197v60l-2.8316 5.7665c-4.8765 9.9308-14.885 15.525-31.668 17.7-4.247 0.55041-39.629 0.98539-81.576 1.0029l-74.076 0.0309-2.1743 2.3144c-2.1365 2.2742-2.1743 2.8574-2.1743 33.5v31.186h-54zm188.12-16.263c6.2735-2.8502 6.8807-4.6024 6.8807-19.856 0-14.962-0.51953-16.588-6.3107-19.756-2.9212-1.5977-8.4903-1.7688-66.248-2.0358l-63.059-0.29157-2.6909 2.4938-2.6909 2.4938v33.249l2.9846 2.9846 2.9846 2.9846 62.265-0.31156c55.21-0.27626 62.675-0.49789 65.885-1.9559zm288.41 85.113c-10.566-14.055-12.641-16.284-17.64-18.948l-5.6659-3.0199h-76.183c-69.437 0-76.155-0.14229-75.86-1.6068 0.1778-0.88375 5.9483-8.3007 12.823-16.482l12.5-14.875 51.775-0.0178 51.775-0.0178 0.9828-2.585c0.7714-2.0288 0.5795-3.1584-0.8917-5.25-1.0311-1.4658-11.41-16.091-23.064-32.502s-21.052-30.435-20.883-31.167c0.6249-2.711 31.311-39.546 32.718-39.274 1.5947 0.30824 133.91 178.54 134.02 180.53 0.053 0.97657-6.9864 1.2387-32.182 1.1984l-32.25-0.0516-11.974-15.929zm137.4 14.48c-19.697-3.5668-27.691-11.801-30.032-30.933-0.6368-5.2059-0.8861-28.619-0.652-61.223 0.3343-46.541 0.5825-53.409 2.0964-57.999 3.5165-10.661 11.345-17.325 24.67-21.002 6.0269-1.6629 13.134-1.7922 98.496-1.7922 97.339 0 97.479 6e-3 108.41 4.6642 5.1421 2.1913 11.443 7.8044 13.846 12.336 1.8973 3.5768 4.3573 13.507 3.6354 14.675-0.2803 0.4535-43.03 0.82455-95 0.82455-82.743 0-94.857 0.18969-97.441 1.5257l-2.9503 1.5257v99.6l2.309 2.1692 2.309 2.1692 94.441 0.25513 94.441 0.25513-0.1145 5.728c-0.1423 7.1119-4.3008 15.933-9.4189 19.978-4.3902 3.4703-12.821 6.492-21.694 7.775-4.0381 0.5839-41.698 0.95107-93.272 0.90937-68.724-0.0555-88.057-0.35195-94.079-1.4423zm291.54 0.30188c-0.263-0.6875-0.3614-26.9-0.2186-58.25l0.2596-57 80.25-0.25595 80.25-0.25595v32.012h-100.65l-2.1743 2.3144c-2.0991 2.2344-2.1743 3.091-2.1743 24.759 0 22.168 0.028 22.463 2.25 23.936 1.9357 1.2823 14.472 1.5604 89.75 1.9906l87.5 0.5 0.2754 15.75 0.2754 15.75h-117.56c-93.124 0-117.66-0.2598-118.04-1.25zm302.38-0.5c-2.544-3.0336-4.8425-7.1251-4.8425-8.6197 0-1.7495 22.687-22.555 40.5-37.141 193.7-142.71 401.25-204.72 619.25-224.46 22.692-1.9831 46.18-4.0852 36.979-2.0561-9.6803 1.7665-9.5315 2.1173-26.432 4.5914-52.842 6.5099-113.39 18.524-166.4 33.016-166.82 45.611-307.39 121.62-413.67 223.67l-13.278 12.75h-35.321c-32.413 0-35.441-0.14406-36.788-1.75zm190.09-25.509c-20.573-14.992-37.542-27.968-37.71-28.836-0.4126-2.1425 41.928-35.931 44.971-35.887 2.4531 0.0356 113.29 81.907 113.62 83.925 0.1709 1.0564-0.4032 3.3012-1.2757 4.9884l-1.5864 3.0677h-80.613zm-145.43-105.9c-22.55-16.509-41.9-30.659-42.999-31.446-1.9839-1.4186-1.9802-1.4647 0.5-6.1609l2.4989-4.7315 39.558-0.26131 39.559-0.2613 29.15 21.261c16.032 11.694 29.168 21.821 29.191 22.504 0.023 0.68357-5.8645 4.2026-13.084 7.82s-19.159 9.9206-26.534 14.007c-7.3745 4.0865-14.181 7.3972-15.125 7.3572-0.9441-0.0401-20.166-13.58-42.716-30.089zm-347.06-8.1241c-0.2731-0.71182-0.3722-8.4762-0.2202-17.254l0.2765-15.96 119.27-0.25407 119.27-0.25406-0.2737 17.254-0.2736 17.254-118.78 0.25408c-96.448 0.20632-118.87 0.0108-119.28-1.0401z"/>
</svg>
